<?xml version="1.0" encoding="iso-8859-1"?>
<!-- Uploaded to: SVG Repo, www.svgrepo.com, Generator: SVG Repo Mixer Tools -->
<svg version="1.1" id="Layer_1" xmlns="http://www.w3.org/2000/svg" xmlns:xlink="http://www.w3.org/1999/xlink" 
	 viewBox="0 0 511.999 511.999" xml:space="preserve">
<polygon style="fill:#31C0D8;" points="88.841,104.511 245.552,104.511 292.565,172.419 88.841,172.419 "/>
<polygon style="fill:#FFD248;" points="444.052,266.446 47.051,266.446 88.841,172.419 292.565,172.419 339.578,172.419 
	381.368,214.209 444.052,214.209 "/>
<path style="fill:#A7A9AC;" d="M501.513,266.446c0,0,0.52,15.253-2.407,36.566H12.889c-2.924-21.313-2.403-36.566-2.403-36.566
	h36.566h397.001H501.513L501.513,266.446z"/>
<path style="fill:#E6E7E8;" d="M12.889,303.012h486.217c-6.366,49.206-30.19,130.593-117.738,130.593H255.999H130.631
	C43.083,433.605,19.259,352.218,12.889,303.012z"/>
<g>
	<path style="fill:#231F20;" d="M511.955,266.09c-0.192-5.629-4.811-10.092-10.442-10.092h-47.012v-41.789
		c0-5.771-4.678-10.449-10.449-10.449h-58.356l-38.728-38.729c-1.959-1.959-4.617-3.06-7.388-3.06h-41.54l-43.896-63.407
		c-1.952-2.819-5.163-4.501-8.591-4.501H99.29V67.946H78.392v36.566v65.69L40.26,255.998H10.486
		c-5.632,0-10.251,4.464-10.442,10.092c-0.022,0.659-0.516,16.397,2.483,38.264c3.161,24.41,10.949,59.529,30.104,88.209
		c22.817,34.166,55.789,51.489,98.001,51.489h250.738c42.212,0,75.185-17.324,98.002-51.489
		c19.155-28.684,26.94-63.802,30.087-88.13C512.472,282.488,511.978,266.749,511.955,266.09z M272.623,161.971H99.29V114.96h140.787
		L272.623,161.971z M95.63,182.868h239.62l38.729,38.729c1.959,1.959,4.616,3.06,7.388,3.06h52.235v31.34H63.13L95.63,182.868z
		 M47.051,276.894h397.001h46.888c-0.163,4.198-0.493,9.548-1.115,15.669H22.169c-0.621-6.117-0.95-11.469-1.112-15.669H47.051z
		 M461.991,380.959c-18.699,27.999-45.824,42.197-80.623,42.197H130.631c-34.799,0-61.923-14.198-80.624-42.198
		c-14.091-21.099-21.269-46.665-24.944-67.497h461.871C483.269,334.255,476.092,359.842,461.991,380.959z"/>
	<rect x="109.732" y="125.405" style="fill:#231F20;" width="20.894" height="20.897"/>
	<rect x="141.078" y="125.405" style="fill:#231F20;" width="20.894" height="20.897"/>
	<rect x="172.425" y="125.405" style="fill:#231F20;" width="20.894" height="20.897"/>
	<rect x="203.76" y="125.405" style="fill:#231F20;" width="20.894" height="20.897"/>
	<rect x="99.294" y="193.312" style="fill:#231F20;" width="240.29" height="20.897"/>
	<rect x="99.294" y="224.658" style="fill:#231F20;" width="20.894" height="20.897"/>
	<rect x="130.63" y="224.658" style="fill:#231F20;" width="20.894" height="20.897"/>
	<rect x="161.976" y="224.658" style="fill:#231F20;" width="20.894" height="20.897"/>
	<rect x="193.312" y="224.658" style="fill:#231F20;" width="20.894" height="20.897"/>
	<rect x="224.658" y="224.658" style="fill:#231F20;" width="20.895" height="20.897"/>
	<rect x="255.994" y="224.658" style="fill:#231F20;" width="20.895" height="20.897"/>
	<rect x="287.34" y="224.658" style="fill:#231F20;" width="20.895" height="20.897"/>
	<rect x="318.686" y="224.658" style="fill:#231F20;" width="20.895" height="20.897"/>
	<rect x="423.163" y="329.135" style="fill:#231F20;" width="20.894" height="20.897"/>
	<rect x="67.948" y="329.135" style="fill:#231F20;" width="20.894" height="20.897"/>
	<rect x="344.808" y="329.135" style="fill:#231F20;" width="62.684" height="20.897"/>
</g>
</svg>