<svg id="visual" viewBox="0 0 960 540" width="960" height="540" xmlns="http://www.w3.org/2000/svg" xmlns:xlink="http://www.w3.org/1999/xlink" version="1.1"><path d="M0 485L10 483.8C20 482.7 40 480.3 60 473.3C80 466.3 100 454.7 120 450C140 445.3 160 447.7 180 449.2C200 450.7 220 451.3 240 454.3C260 457.3 280 462.7 300 469.8C320 477 340 486 360 490.3C380 494.7 400 494.3 420 482.5C440 470.7 460 447.3 480 439.8C500 432.3 520 440.7 540 451.5C560 462.3 580 475.7 600 476.7C620 477.7 640 466.3 660 455.3C680 444.3 700 433.7 720 432.2C740 430.7 760 438.3 780 448.8C800 459.3 820 472.7 840 481C860 489.3 880 492.7 900 481.5C920 470.3 940 444.7 950 431.8L960 419L960 541L950 541C940 541 920 541 900 541C880 541 860 541 840 541C820 541 800 541 780 541C760 541 740 541 720 541C700 541 680 541 660 541C640 541 620 541 600 541C580 541 560 541 540 541C520 541 500 541 480 541C460 541 440 541 420 541C400 541 380 541 360 541C340 541 320 541 300 541C280 541 260 541 240 541C220 541 200 541 180 541C160 541 140 541 120 541C100 541 80 541 60 541C40 541 20 541 10 541L0 541Z" fill="#0066FF" stroke-linecap="round" stroke-linejoin="miter"></path></svg>